<svg width="170" height="170" viewBox="0 0 170 170" fill="none" xmlns="http://www.w3.org/2000/svg">
    <rect width="170" height="170" fill="#E5EDF4"/>
    <path d="M114.388 43H54.6116C51.532 43 48.5786 44.2227 46.401 46.3991C44.2234 48.5755 43 51.5273 43 54.6051V114.395C43.0086 117.47 44.2347 120.417 46.4104 122.591C48.5862 124.766 51.5347 125.991 54.6116 126H114.388C117.465 125.991 120.414 124.766 122.59 122.591C124.765 120.417 125.991 117.47 126 114.395V54.6051C126 53.0811 125.7 51.572 125.116 50.164C124.533 48.756 123.677 47.4767 122.599 46.3991C121.521 45.3214 120.241 44.4666 118.832 43.8834C117.423 43.3002 115.913 43 114.388 43ZM47.6447 54.6051C47.6447 52.7584 48.3787 50.9873 49.6852 49.6815C50.9918 48.3757 52.7639 47.6421 54.6116 47.6421H114.388C116.236 47.6421 118.008 48.3757 119.315 49.6815C120.621 50.9873 121.355 52.7584 121.355 54.6051V94.8054L103.334 76.7942C102.022 75.5003 100.254 74.7749 98.4107 74.7749C96.5678 74.7749 94.7991 75.5003 93.4874 76.7942L72.3078 98.0084C71.8642 98.4334 71.2734 98.6707 70.6589 98.6707C70.0444 98.6707 69.4537 98.4334 69.0101 98.0084L66.4091 95.4088C65.0899 94.1293 63.324 93.4136 61.4857 93.4136C59.6475 93.4136 57.8815 94.1293 56.5624 95.4088L47.6447 104.322V54.6051ZM121.355 114.395C121.355 116.242 120.621 118.013 119.315 119.318C118.008 120.624 116.236 121.358 114.388 121.358H54.6116C52.7639 121.358 50.9918 120.624 49.6852 119.318C48.3787 118.013 47.6447 116.242 47.6447 114.395V110.913L59.8833 98.7047C60.3196 98.2844 60.903 98.0512 61.509 98.0548C62.1288 98.0507 62.7268 98.2832 63.181 98.7047L65.7356 101.304C67.0473 102.598 68.816 103.324 70.6589 103.324C72.5018 103.324 74.2706 102.598 75.5823 101.304L96.8083 80.09C97.0242 79.8725 97.2811 79.6998 97.5641 79.582C97.8471 79.4642 98.1506 79.4035 98.4572 79.4035C98.7638 79.4035 99.0673 79.4642 99.3503 79.582C99.6333 79.6998 99.8902 79.8725 100.106 80.09L121.379 101.351L121.355 114.395Z" fill="white"/>
    <path d="M66.2093 77.8386C63.9128 77.8386 61.6678 77.158 59.7583 75.8828C57.8487 74.6076 56.3604 72.7952 55.4816 70.6746C54.6027 68.554 54.3728 66.2206 54.8208 63.9694C55.2689 61.7183 56.3748 59.6504 57.9987 58.0274C59.6226 56.4044 61.6916 55.2991 63.944 54.8513C66.1965 54.4036 68.5312 54.6334 70.6529 55.5117C72.7747 56.3901 74.5882 57.8776 75.8641 59.786C77.14 61.6945 77.821 63.9382 77.821 66.2335C77.821 69.3114 76.5976 72.2632 74.42 74.4396C72.2424 76.616 69.2889 77.8386 66.2093 77.8386ZM66.2093 59.2704C64.8314 59.2704 63.4844 59.6788 62.3387 60.4439C61.193 61.209 60.3 62.2965 59.7727 63.5688C59.2454 64.8412 59.1074 66.2412 59.3762 67.5919C59.6451 68.9426 60.3086 70.1833 61.2829 71.1571C62.2573 72.1309 63.4987 72.7941 64.8502 73.0628C66.2016 73.3315 67.6024 73.1936 68.8755 72.6665C70.1485 72.1395 71.2366 71.2471 72.0022 70.102C72.7677 68.9569 73.1763 67.6107 73.1763 66.2335C73.1763 64.3868 72.4423 62.6157 71.1358 61.3098C69.8292 60.004 68.0571 59.2704 66.2093 59.2704Z" fill="white"/>
</svg>
