<svg>
    <symbol id="search" width="21" height="21" viewBox="0 0 21 21" fill="none" xmlns="http://www.w3.org/2000/svg">
        <path d="M9.11778 15.75C7.8767 15.75 6.66349 15.3819 5.63157 14.6924C4.59965 14.0029 3.79537 13.0229 3.32043 11.8763C2.84549 10.7297 2.72123 9.46799 2.96335 8.25076C3.20547 7.03353 3.80311 5.91543 4.68068 5.03786C5.55826 4.16028 6.67635 3.56265 7.89358 3.32053C9.11081 3.0784 10.3725 3.20267 11.5191 3.67761C12.6657 4.15255 13.6457 4.95683 14.3352 5.98875C15.0248 7.02067 15.3928 8.23388 15.3928 9.47495C15.3928 10.299 15.2305 11.115 14.9151 11.8763C14.5998 12.6376 14.1376 13.3294 13.5549 13.912C12.9722 14.4947 12.2804 14.9569 11.5191 15.2723C10.7578 15.5876 9.94182 15.75 9.11778 15.75ZM9.11778 4.45829C8.12887 4.45829 7.16217 4.75153 6.33992 5.30094C5.51768 5.85035 4.87682 6.63124 4.49838 7.54487C4.11994 8.4585 4.02092 9.46383 4.21385 10.4337C4.40678 11.4036 4.88298 12.2946 5.58224 12.9938C6.2815 13.6931 7.17242 14.1693 8.14232 14.3622C9.11223 14.5551 10.1176 14.4561 11.0312 14.0777C11.9448 13.6992 12.7257 13.0584 13.2751 12.2361C13.8245 11.4139 14.1178 10.4472 14.1178 9.45829C14.1178 8.1322 13.591 6.86044 12.6533 5.92275C11.7156 4.98507 10.4439 4.45829 9.11778 4.45829Z"
              fill="currentColor"/>
        <path d="M16.8095 17.7917C16.7274 17.7921 16.646 17.776 16.5702 17.7446C16.4943 17.7131 16.4255 17.6668 16.3678 17.6083L12.9262 14.1667C12.8158 14.0482 12.7557 13.8915 12.7585 13.7296C12.7614 13.5677 12.827 13.4132 12.9415 13.2987C13.056 13.1841 13.2105 13.1186 13.3724 13.1157C13.5343 13.1128 13.691 13.1729 13.8095 13.2833L17.2512 16.725C17.3682 16.8422 17.4339 17.0011 17.4339 17.1667C17.4339 17.3323 17.3682 17.4912 17.2512 17.6083C17.1935 17.6668 17.1247 17.7131 17.0488 17.7446C16.973 17.776 16.8916 17.7921 16.8095 17.7917Z"
              fill="currentColor"/>
    </symbol>
    <symbol id="calendar" width="20" height="21" viewBox="0 0 20 21" fill="none" xmlns="http://www.w3.org/2000/svg">
        <path fill-rule="evenodd" clip-rule="evenodd"
              d="M15.0925 17.9074C15.7065 17.9074 16.2953 17.6635 16.7294 17.2294C17.1635 16.7953 17.4074 16.2065 17.4074 15.5925C17.4074 14.9786 17.1635 14.3898 16.7294 13.9557C16.2953 13.5216 15.7065 13.2777 15.0925 13.2777C14.4786 13.2777 13.8898 13.5216 13.4557 13.9557C13.0216 14.3898 12.7777 14.9786 12.7777 15.5925C12.7777 16.2065 13.0216 16.7953 13.4557 17.2294C13.8898 17.6635 14.4786 17.9074 15.0925 17.9074ZM15.0925 18.8333C15.952 18.8333 16.7763 18.4919 17.3841 17.8841C17.9919 17.2763 18.3333 16.452 18.3333 15.5925C18.3333 14.733 17.9919 13.9088 17.3841 13.301C16.7763 12.6932 15.952 12.3518 15.0925 12.3518C14.233 12.3518 13.4088 12.6932 12.801 13.301C12.1932 13.9088 11.8518 14.733 11.8518 15.5925C11.8518 16.452 12.1932 17.2763 12.801 17.8841C13.4088 18.4919 14.233 18.8333 15.0925 18.8333Z"
              fill="currentColor"/>
        <path fill-rule="evenodd" clip-rule="evenodd"
              d="M15.0925 13.9722C15.2153 13.9722 15.333 14.021 15.4199 14.1078C15.5067 14.1946 15.5555 14.3124 15.5555 14.4352V15.4009L15.8828 15.7282C15.9671 15.8155 16.0138 15.9325 16.0127 16.0539C16.0117 16.1753 15.963 16.2914 15.8771 16.3772C15.7913 16.463 15.6752 16.5117 15.5538 16.5128C15.4324 16.5138 15.3155 16.4672 15.2282 16.3828L14.6295 15.7842V14.4352C14.6295 14.3124 14.6783 14.1946 14.7651 14.1078C14.852 14.021 14.9697 13.9722 15.0925 13.9722ZM5.37028 10.037H4.44436V10.9629H5.37028V10.037ZM4.44436 9.11108C4.19879 9.11108 3.96327 9.20864 3.78963 9.38228C3.61599 9.55593 3.51843 9.79144 3.51843 10.037V10.9629C3.51843 11.2085 3.61599 11.444 3.78963 11.6177C3.96327 11.7913 4.19879 11.8889 4.44436 11.8889H5.37028C5.61586 11.8889 5.85137 11.7913 6.02501 11.6177C6.19866 11.444 6.29621 11.2085 6.29621 10.9629V10.037C6.29621 9.79144 6.19866 9.55593 6.02501 9.38228C5.85137 9.20864 5.61586 9.11108 5.37028 9.11108H4.44436ZM9.07399 10.037H8.14806V10.9629H9.07399V10.037ZM8.14806 9.11108C7.90249 9.11108 7.66698 9.20864 7.49333 9.38228C7.31969 9.55593 7.22214 9.79144 7.22214 10.037V10.9629C7.22214 11.2085 7.31969 11.444 7.49333 11.6177C7.66698 11.7913 7.90249 11.8889 8.14806 11.8889H9.07399C9.31956 11.8889 9.55507 11.7913 9.72872 11.6177C9.90236 11.444 9.99991 11.2085 9.99991 10.9629V10.037C9.99991 9.79144 9.90236 9.55593 9.72872 9.38228C9.55507 9.20864 9.31956 9.11108 9.07399 9.11108H8.14806ZM12.7777 10.037H11.8518V10.9629H12.7777V10.037ZM11.8518 9.11108C11.6062 9.11108 11.3707 9.20864 11.197 9.38228C11.0234 9.55593 10.9258 9.79144 10.9258 10.037V10.9629C10.9258 11.2085 11.0234 11.444 11.197 11.6177C11.3707 11.7913 11.6062 11.8889 11.8518 11.8889H12.7777C13.0233 11.8889 13.2588 11.7913 13.4324 11.6177C13.6061 11.444 13.7036 11.2085 13.7036 10.9629V10.037C13.7036 9.79144 13.6061 9.55593 13.4324 9.38228C13.2588 9.20864 13.0233 9.11108 12.7777 9.11108H11.8518ZM5.37028 13.7407H4.44436V14.6666H5.37028V13.7407ZM4.44436 12.8148C4.19879 12.8148 3.96327 12.9123 3.78963 13.086C3.61599 13.2596 3.51843 13.4951 3.51843 13.7407V14.6666C3.51843 14.9122 3.61599 15.1477 3.78963 15.3214C3.96327 15.495 4.19879 15.5926 4.44436 15.5926H5.37028C5.61586 15.5926 5.85137 15.495 6.02501 15.3214C6.19866 15.1477 6.29621 14.9122 6.29621 14.6666V13.7407C6.29621 13.4951 6.19866 13.2596 6.02501 13.086C5.85137 12.9123 5.61586 12.8148 5.37028 12.8148H4.44436ZM9.07399 13.7407H8.14806V14.6666H9.07399V13.7407ZM8.14806 12.8148C7.90249 12.8148 7.66698 12.9123 7.49333 13.086C7.31969 13.2596 7.22214 13.4951 7.22214 13.7407V14.6666C7.22214 14.9122 7.31969 15.1477 7.49333 15.3214C7.66698 15.495 7.90249 15.5926 8.14806 15.5926H9.07399C9.31956 15.5926 9.55507 15.495 9.72872 15.3214C9.90236 15.1477 9.99991 14.9122 9.99991 14.6666V13.7407C9.99991 13.4951 9.90236 13.2596 9.72872 13.086C9.55507 12.9123 9.31956 12.8148 9.07399 12.8148H8.14806Z"
              fill="currentColor"/>
        <path fill-rule="evenodd" clip-rule="evenodd"
              d="M2.59255 4.94443C2.59255 4.82165 2.64133 4.70389 2.72815 4.61707C2.81497 4.53024 2.93273 4.48147 3.05551 4.48147H5.37033V3.55554H3.05551C2.68716 3.55554 2.33389 3.70187 2.07342 3.96234C1.81295 4.22281 1.66663 4.57607 1.66663 4.94443V16.0555C1.66663 16.4239 1.81295 16.7772 2.07342 17.0376C2.33389 17.2981 2.68716 17.4444 3.05551 17.4444H12.4328C12.2354 17.1616 12.0846 16.849 11.9861 16.5185H3.05551C2.93273 16.5185 2.81497 16.4697 2.72815 16.3829C2.64133 16.2961 2.59255 16.1783 2.59255 16.0555V4.94443ZM14.6296 12.3842C14.9367 12.3403 15.2484 12.3403 15.5555 12.3842V4.94443C15.5555 4.57607 15.4092 4.22281 15.1487 3.96234C14.8882 3.70187 14.535 3.55554 14.1666 3.55554H12.7777V4.48147H14.1666C14.2894 4.48147 14.4072 4.53024 14.494 4.61707C14.5808 4.70389 14.6296 4.82165 14.6296 4.94443V12.3842ZM6.29626 4.48147H11.1865V3.55554H6.29626V4.48147Z"
              fill="currentColor"/>
        <path fill-rule="evenodd" clip-rule="evenodd" d="M15.5555 7.72219H2.59253V6.79626H15.5555V7.72219Z" fill="currentColor"/>
        <path d="M4.44434 2.62959C4.44434 2.5068 4.49311 2.38905 4.57993 2.30222C4.66676 2.2154 4.78451 2.16663 4.9073 2.16663C5.03008 2.16663 5.14784 2.2154 5.23466 2.30222C5.32149 2.38905 5.37026 2.5068 5.37026 2.62959V4.9444C5.37026 5.06719 5.32149 5.18495 5.23466 5.27177C5.14784 5.35859 5.03008 5.40737 4.9073 5.40737C4.78451 5.40737 4.66676 5.35859 4.57993 5.27177C4.49311 5.18495 4.44434 5.06719 4.44434 4.9444V2.62959ZM10.9258 2.62959C10.9258 2.5068 10.9746 2.38905 11.0614 2.30222C11.1482 2.2154 11.266 2.16663 11.3888 2.16663C11.5116 2.16663 11.6293 2.2154 11.7161 2.30222C11.803 2.38905 11.8517 2.5068 11.8517 2.62959V4.9444C11.8517 5.06719 11.803 5.18495 11.7161 5.27177C11.6293 5.35859 11.5116 5.40737 11.3888 5.40737C11.266 5.40737 11.1482 5.35859 11.0614 5.27177C10.9746 5.18495 10.9258 5.06719 10.9258 4.9444V2.62959Z"
              fill="currentColor"/>
    </symbol>
    <symbol id="phone" width="20" height="21" viewBox="0 0 20 21" fill="none" xmlns="http://www.w3.org/2000/svg">
        <path d="M11.8961 3.46325C11.9173 3.38393 11.954 3.30956 12.0039 3.24441C12.0539 3.17926 12.1162 3.12458 12.1873 3.08352C12.2584 3.04245 12.3369 3.0158 12.4183 3.00509C12.4997 2.99437 12.5824 2.9998 12.6617 3.02106C13.8204 3.32336 14.8775 3.92906 15.7242 4.77577C16.5709 5.62249 17.1766 6.6796 17.4789 7.83825C17.5002 7.91755 17.5056 8.00027 17.4949 8.08168C17.4842 8.16308 17.4575 8.24158 17.4165 8.31268C17.3754 8.38378 17.3207 8.44609 17.2556 8.49605C17.1904 8.54602 17.116 8.58265 17.0367 8.60387C16.9839 8.61774 16.9296 8.62483 16.875 8.62496C16.7373 8.62496 16.6034 8.57946 16.4942 8.49554C16.385 8.41163 16.3066 8.29398 16.2711 8.1609C16.0245 7.21506 15.5302 6.35208 14.8391 5.66092C14.1479 4.96976 13.2849 4.47542 12.3391 4.22887C12.2597 4.20774 12.1852 4.17116 12.12 4.12123C12.0548 4.07131 12 4.009 11.9589 3.9379C11.9177 3.86679 11.891 3.78826 11.8802 3.70682C11.8695 3.62537 11.8749 3.5426 11.8961 3.46325ZM11.7141 6.72887C12.7914 7.01637 13.4836 7.70856 13.7711 8.7859C13.8066 8.91898 13.885 9.03663 13.9942 9.12054C14.1034 9.20446 14.2373 9.24996 14.375 9.24996C14.4296 9.24983 14.4839 9.24274 14.5367 9.22887C14.616 9.20765 14.6904 9.17102 14.7556 9.12105C14.8207 9.07109 14.8754 9.00878 14.9165 8.93768C14.9575 8.86658 14.9842 8.78808 14.9949 8.70668C15.0056 8.62527 15.0002 8.54255 14.9789 8.46325C14.5789 6.96637 13.5336 5.92106 12.0367 5.52106C11.9574 5.49987 11.8747 5.49451 11.7933 5.50529C11.712 5.51607 11.6335 5.54276 11.5624 5.58386C11.4914 5.62496 11.4291 5.67965 11.3792 5.74481C11.3293 5.80997 11.2927 5.88433 11.2715 5.96364C11.2503 6.04294 11.2449 6.12564 11.2557 6.20702C11.2665 6.2884 11.2932 6.36686 11.3343 6.43791C11.3754 6.50897 11.4301 6.57124 11.4952 6.62116C11.5604 6.67109 11.6348 6.70768 11.7141 6.72887ZM18.1156 14.1781C17.9763 15.2367 17.4564 16.2084 16.6531 16.9117C15.8497 17.6151 14.8177 18.0019 13.75 18C7.54688 18 2.50001 12.9531 2.50001 6.74996C2.49809 5.68222 2.88492 4.65029 3.58824 3.84691C4.29155 3.04353 5.26326 2.52364 6.32188 2.38434C6.58958 2.35165 6.86067 2.40642 7.09468 2.54046C7.3287 2.67451 7.51309 2.88064 7.62032 3.12809L9.27032 6.81168V6.82106C9.35242 7.01047 9.38633 7.21728 9.36901 7.42299C9.3517 7.62871 9.2837 7.82693 9.1711 7.99996C9.15704 8.02106 9.14219 8.04059 9.12657 8.06012L7.50001 9.98825C8.08516 11.1773 9.32891 12.4101 10.5336 12.9968L12.4352 11.3789C12.4538 11.3632 12.4734 11.3486 12.4938 11.3351C12.6666 11.2198 12.8655 11.1494 13.0725 11.1303C13.2794 11.1112 13.4878 11.144 13.6789 11.2257L13.6891 11.2304L17.3695 12.8797C17.6174 12.9865 17.8241 13.1707 17.9585 13.4048C18.093 13.6388 18.1481 13.9101 18.1156 14.1781ZM16.875 14.0218H16.8664L13.1945 12.3773L11.2922 13.9953C11.2737 14.0109 11.2544 14.0255 11.2344 14.039C11.0545 14.159 10.8466 14.2303 10.6309 14.2459C10.4152 14.2615 10.1992 14.2209 10.0039 14.1281C8.54063 13.4211 7.08204 11.9734 6.37423 10.5257C6.2805 10.3319 6.23844 10.1171 6.25213 9.9022C6.26582 9.6873 6.33478 9.47959 6.45235 9.29918C6.4656 9.278 6.48049 9.25789 6.49688 9.23903L8.12501 7.30856L6.48438 3.63668C6.48407 3.63357 6.48407 3.63042 6.48438 3.62731C5.72677 3.72613 5.03116 4.09775 4.52783 4.67255C4.0245 5.24736 3.74796 5.98593 3.75001 6.74996C3.7529 9.40124 4.8074 11.9431 6.68214 13.8178C8.55687 15.6926 11.0987 16.7471 13.75 16.75C14.5136 16.7526 15.2519 16.477 15.8271 15.9748C16.4022 15.4725 16.7747 14.778 16.875 14.0211V14.0218Z" fill="currentColor"/>
    </symbol>
    <svg id="instagram" width="16" height="17" viewBox="0 0 16 17" fill="none" xmlns="http://www.w3.org/2000/svg">
        <path d="M8 1.94578C10.1205 1.94578 10.4096 1.94578 11.2771 1.94578C12.0482 1.94578 12.4337 2.13855 12.7229 2.23494C13.1084 2.42771 13.3976 2.5241 13.6867 2.81325C13.9759 3.10241 14.1687 3.39157 14.2651 3.77711C14.3614 4.06627 14.4578 4.45181 14.5542 5.22289C14.5542 6.09036 14.5542 6.28313 14.5542 8.5C14.5542 10.7169 14.5542 10.9096 14.5542 11.7771C14.5542 12.5482 14.3614 12.9337 14.2651 13.2229C14.0723 13.6084 13.9759 13.8976 13.6867 14.1867C13.3976 14.4759 13.1084 14.6687 12.7229 14.7651C12.4337 14.8614 12.0482 14.9578 11.2771 15.0542C10.4096 15.0542 10.2169 15.0542 8 15.0542C5.78313 15.0542 5.59036 15.0542 4.72289 15.0542C3.95181 15.0542 3.56627 14.8614 3.27711 14.7651C2.89157 14.5723 2.60241 14.4759 2.31325 14.1867C2.0241 13.8976 1.83133 13.6084 1.73494 13.2229C1.63855 12.9337 1.54217 12.5482 1.44578 11.7771C1.44578 10.9096 1.44578 10.7169 1.44578 8.5C1.44578 6.28313 1.44578 6.09036 1.44578 5.22289C1.44578 4.45181 1.63855 4.06627 1.73494 3.77711C1.92771 3.39157 2.0241 3.10241 2.31325 2.81325C2.60241 2.5241 2.89157 2.33133 3.27711 2.23494C3.56627 2.13855 3.95181 2.04217 4.72289 1.94578C5.59036 1.94578 5.87952 1.94578 8 1.94578ZM8 0.5C5.78313 0.5 5.59036 0.5 4.72289 0.5C3.85542 0.5 3.27711 0.692772 2.79518 0.885543C2.31325 1.07831 1.83133 1.36747 1.3494 1.8494C0.867471 2.33133 0.674699 2.71687 0.385543 3.29518C0.192772 3.77711 0.0963856 4.35542 0 5.22289C0 6.09036 0 6.37952 0 8.5C0 10.7169 0 10.9096 0 11.7771C0 12.6446 0.192772 13.2229 0.385543 13.7048C0.578314 14.1867 0.867471 14.6687 1.3494 15.1506C1.83133 15.6325 2.21687 15.8253 2.79518 16.1145C3.27711 16.3072 3.85542 16.4036 4.72289 16.5C5.59036 16.5 5.87952 16.5 8 16.5C10.1205 16.5 10.4096 16.5 11.2771 16.5C12.1446 16.5 12.7229 16.3072 13.2048 16.1145C13.6867 15.9217 14.1687 15.6325 14.6506 15.1506C15.1325 14.6687 15.3253 14.2831 15.6145 13.7048C15.8072 13.2229 15.9036 12.6446 16 11.7771C16 10.9096 16 10.6205 16 8.5C16 6.37952 16 6.09036 16 5.22289C16 4.35542 15.8072 3.77711 15.6145 3.29518C15.4217 2.81325 15.1325 2.33133 14.6506 1.8494C14.1687 1.36747 13.7831 1.1747 13.2048 0.885543C12.7229 0.692772 12.1446 0.596386 11.2771 0.5C10.4096 0.5 10.2169 0.5 8 0.5Z" fill="#004098"/>
        <path d="M8 4.35542C5.68675 4.35542 3.85542 6.18675 3.85542 8.5C3.85542 10.8133 5.68675 12.6446 8 12.6446C10.3133 12.6446 12.1446 10.8133 12.1446 8.5C12.1446 6.18675 10.3133 4.35542 8 4.35542ZM8 11.1988C6.55422 11.1988 5.30121 10.0422 5.30121 8.5C5.30121 7.05422 6.45783 5.80121 8 5.80121C9.44578 5.80121 10.6988 6.95783 10.6988 8.5C10.6988 9.94578 9.44578 11.1988 8 11.1988Z" fill="#004098"/>
        <path d="M12.241 5.22289C12.7733 5.22289 13.2048 4.79136 13.2048 4.25904C13.2048 3.72671 12.7733 3.29518 12.241 3.29518C11.7086 3.29518 11.2771 3.72671 11.2771 4.25904C11.2771 4.79136 11.7086 5.22289 12.241 5.22289Z" fill="#004098"/>
    </svg>
    <symbol id="whatsapp" width="17" height="18" viewBox="0 0 17 18" fill="none" xmlns="http://www.w3.org/2000/svg">
        <path d="M14.3415 3.14995C12.761 1.57495 10.6537 0.699951 8.42927 0.699951C3.80488 0.699951 0.0585357 4.43328 0.0585357 9.04162C0.0585357 10.5 0.468293 11.9583 1.17073 13.1833L0 17.5L4.44878 16.3333C5.67805 16.975 7.02439 17.325 8.42927 17.325C13.0537 17.325 16.8 13.5916 16.8 8.98328C16.7415 6.82495 15.9219 4.72495 14.3415 3.14995ZM12.4683 12.0166C12.2927 12.4833 11.4732 12.95 11.0634 13.0083C10.7122 13.0666 10.2439 13.0666 9.77561 12.95C9.48293 12.8333 9.07317 12.7166 8.60488 12.4833C6.49756 11.6083 5.15122 9.50828 5.03415 9.33328C4.91707 9.21662 4.1561 8.22495 4.1561 7.17495C4.1561 6.12495 4.68293 5.65828 4.85854 5.42495C5.03415 5.19162 5.26829 5.19162 5.4439 5.19162C5.56098 5.19162 5.73658 5.19162 5.85366 5.19162C5.97073 5.19162 6.14634 5.13328 6.32195 5.54162C6.49756 5.94995 6.90732 6.99995 6.96585 7.05828C7.02439 7.17495 7.02439 7.29162 6.96585 7.40828C6.90732 7.52495 6.84878 7.64162 6.7317 7.75828C6.61463 7.87495 6.49756 8.04995 6.43902 8.10828C6.32195 8.22495 6.20488 8.34162 6.32195 8.51662C6.43902 8.74995 6.84878 9.39162 7.49268 9.97495C8.31219 10.6749 8.9561 10.9083 9.19024 11.025C9.42439 11.1416 9.54146 11.0833 9.65853 10.9666C9.77561 10.8499 10.1854 10.3833 10.3024 10.15C10.4195 9.91662 10.5951 9.97495 10.7707 10.0333C10.9463 10.0916 12 10.6166 12.1756 10.7333C12.4098 10.85 12.5268 10.9083 12.5854 10.9666C12.6439 11.1416 12.6439 11.5499 12.4683 12.0166Z" fill="#004098"/>
    </symbol>
    <symbol id="arrowDown" width="16" height="16" viewBox="0 0 16 16" fill="none" xmlns="http://www.w3.org/2000/svg">
        <path d="M12.9841 5.1189C12.7221 4.93557 12.3656 4.97118 12.1451 5.20268L9.32411 8.1647C8.93003 8.5785 8.26993 8.5785 7.87584 8.1647L5.05486 5.20268C4.83438 4.97118 4.47781 4.93557 4.2159 5.1189C3.89177 5.34579 3.84562 5.80798 4.11848 6.09448L7.87584 10.0397C8.26993 10.4535 8.93003 10.4535 9.32411 10.0397L13.0815 6.09448C13.3543 5.80797 13.3082 5.34579 12.9841 5.1189Z" fill="currentColor"/>
    </symbol>
    <symbol id="globus" viewBox="0 0 20 20" fill="none" xmlns="http://www.w3.org/2000/svg">
        <g clip-path="url(#clip0_96_11803)">
            <path d="M1.66663 9.99996C1.66663 14.6025 5.39746 18.3333 9.99996 18.3333C14.6025 18.3333 18.3333 14.6025 18.3333 9.99996C18.3333 5.39746 14.6025 1.66663 9.99996 1.66663C5.39746 1.66663 1.66663 5.39746 1.66663 9.99996Z" stroke="currentColor" stroke-width="1.5" stroke-linecap="round" stroke-linejoin="round"/>
            <path d="M10.8333 1.70825C10.8333 1.70825 13.3333 4.99992 13.3333 9.99992C13.3333 14.9999 10.8333 18.2916 10.8333 18.2916M9.16665 18.2916C9.16665 18.2916 6.66665 14.9999 6.66665 9.99992C6.66665 4.99992 9.16665 1.70825 9.16665 1.70825M2.19165 12.9166H17.8083M2.19165 7.08325H17.8083" stroke="currentColor" stroke-width="1.5" stroke-linecap="round" stroke-linejoin="round"/>
        </g>
        <defs>
            <clipPath id="clip0_96_11803">
                <rect width="20" height="20" fill="currentColor"/>
            </clipPath>
        </defs>
    </symbol>
    <symbol id="burger" viewBox="0 0 24 24" fill="none" xmlns="http://www.w3.org/2000/svg">
        <path d="M21 12C21 12.1989 20.921 12.3897 20.7803 12.5303C20.6397 12.671 20.4489 12.75 20.25 12.75H3.75C3.55109 12.75 3.36032 12.671 3.21967 12.5303C3.07902 12.3897 3 12.1989 3 12C3 11.8011 3.07902 11.6103 3.21967 11.4697C3.36032 11.329 3.55109 11.25 3.75 11.25H20.25C20.4489 11.25 20.6397 11.329 20.7803 11.4697C20.921 11.6103 21 11.8011 21 12ZM3.75 6.75H20.25C20.4489 6.75 20.6397 6.67098 20.7803 6.53033C20.921 6.38968 21 6.19891 21 6C21 5.80109 20.921 5.61032 20.7803 5.46967C20.6397 5.32902 20.4489 5.25 20.25 5.25H3.75C3.55109 5.25 3.36032 5.32902 3.21967 5.46967C3.07902 5.61032 3 5.80109 3 6C3 6.19891 3.07902 6.38968 3.21967 6.53033C3.36032 6.67098 3.55109 6.75 3.75 6.75ZM20.25 17.25H3.75C3.55109 17.25 3.36032 17.329 3.21967 17.4697C3.07902 17.6103 3 17.8011 3 18C3 18.1989 3.07902 18.3897 3.21967 18.5303C3.36032 18.671 3.55109 18.75 3.75 18.75H20.25C20.4489 18.75 20.6397 18.671 20.7803 18.5303C20.921 18.3897 21 18.1989 21 18C21 17.8011 20.921 17.6103 20.7803 17.4697C20.6397 17.329 20.4489 17.25 20.25 17.25Z" fill="currentColor"/>
    </symbol>
    <symbol id="close" viewBox="0 0 34 34" fill="none" xmlns="http://www.w3.org/2000/svg">
        <path d="M11.1679 22.8312L22.8352 11.1639" stroke="white" stroke-width="2" stroke-linecap="round" stroke-linejoin="round"/>
        <path d="M11.1676 11.165L22.8349 22.8323" stroke="white" stroke-width="2" stroke-linecap="round" stroke-linejoin="round"/>
    </symbol>
</svg>
